<svg width="42" height="35" viewBox="0 0 42 35" fill="none" xmlns="http://www.w3.org/2000/svg">
<path d="M35.493 2.64865C33.4097 0.279186 29.8222 -0.676175 26.4049 0.508356C21.9957 2.03674 19.5395 6.54891 20.9189 10.5866C20.9516 10.6823 20.9861 10.7768 21.0225 10.8702L20.4682 10.8847C12.6903 11.0909 5.45825 4.95712 2.81445 1.86448C1.79104 2.63764 1.27927 5.41216 2.04683 8.76251C2.54392 10.9323 4.22146 12.2627 5.06397 12.9308C5.52238 13.2944 5.73358 13.4619 5.37296 13.4619C4.55424 13.4619 2.47331 12.7746 1.53519 12.431C1.53519 13.376 1.99572 15.8329 3.83785 18.1008C5.47315 20.1141 7.36653 20.5676 8.14338 20.7537C8.46041 20.8297 8.59149 20.8611 8.44319 20.9357C8.03382 21.1419 5.7141 21.1935 4.60541 21.1935C5.11711 22.2243 6.06708 24.1212 7.41972 25.2566C7.74091 25.5262 8.1181 25.7684 8.52318 25.9843C9.54114 26.3839 12.0544 27.0606 12.7925 27.0606C13.0484 27.0606 10.2054 29.0906 8.44313 29.6982C5.9341 30.5634 1.18835 31.0669 0.00668159 30.9834L0 30.9869C4.60534 33.5641 6.14041 34.0796 11.2575 34.8527C16.3746 35.6258 22.9879 33.2624 27.632 29.956C32.2762 26.6495 35.138 21.9985 36.7714 17.4847C37.9656 14.1845 38.2342 11.2176 37.6923 8.65211C39.3494 7.89446 42.3842 3.8585 41.9598 4.18392C40.694 5.1544 37.1109 5.66983 37.3544 5.47252C38.363 4.65525 40.2541 2.03625 40.9363 0.575843C40.8511 0.661749 40.4758 0.93665 39.6571 1.349C38.9985 1.68072 36.9711 2.25704 35.493 2.64865Z" fill="white"/>
</svg>
